#tb 0: 1/8000
#media_type 0: audio
#codec_id 0: pcm_s16le
#sample_rate 0: 8000
#channel_layout_name 0: mono
0,          0,          0,      240,      480, 0xf1107658
0,        240,        240,      240,      480, 0x50dee179
0,        480,        480,      240,      480, 0x40090802
0,        720,        720,      240,      480, 0x3ef9f6ff
0,        960,        960,      240,      480, 0x5b7df231
0,       1200,       1200,      240,      480, 0xe266efd1
0,       1440,       1440,      240,      480, 0xfbe6e658
0,       1680,       1680,      240,      480, 0xde84f311
0,       1920,       1920,      240,      480, 0x5854ec2f
0,       2160,       2160,      240,      480, 0x4901cdea
0,       2400,       2400,      240,      480, 0x03f3e619
0,       2640,       2640,      240,      480, 0x47abfe87
0,       2880,       2880,      240,      480, 0x69dddf34
0,       3120,       3120,      240,      480, 0x1cfeee2c
0,       3360,       3360,      240,      480, 0x1860ef1c
0,       3600,       3600,      240,      480, 0x8f86e8ed
0,       3840,       3840,      240,      480, 0x307deaf8
0,       4080,       4080,      240,      480, 0xeca7eca0
0,       4320,       4320,      240,      480, 0x1835ee1c
0,       4560,       4560,      240,      480, 0x6676ed66
0,       4800,       4800,      240,      480, 0x49c2fd04
0,       5040,       5040,      240,      480, 0xc463db75
0,       5280,       5280,      240,      480, 0x1931ed7d
0,       5520,       5520,      240,      480, 0xc99ff886
0,       5760,       5760,      240,      480, 0xcd3ae8de
0,       6000,       6000,      240,      480, 0x2294ecfa
0,       6240,       6240,      240,      480, 0xcf5ef14b
0,       6480,       6480,      240,      480, 0x6325d4fe
0,       6720,       6720,      240,      480, 0x3790dcf2
0,       6960,       6960,      240,      480, 0x0fbee6c0
